<svg data-v-423bf9ae="" xmlns="http://www.w3.org/2000/svg" viewBox="0 0 417 112" class="iconLeft"><!----><!----><!----><g data-v-423bf9ae="" id="1462eaf8-3c94-490d-a730-251cfe438a7e" fill="white" transform="matrix(4.56620979309082,0,0,4.56620979309082,124.18582916259766,14.560447692871094)"><path d="M2.89 12.67L0.84 12.67L0.84 2.42L2.89 2.42L2.89 6.52L7.67 6.52L7.67 2.41L9.72 2.41L9.72 12.67L7.67 12.67L7.67 8.44L2.89 8.44L2.89 12.67ZM11.42 9.26L11.42 9.26L11.42 9.26Q11.42 7.75 12.37 6.79L12.37 6.79L12.37 6.79Q13.33 5.84 14.83 5.84L14.83 5.84L14.83 5.84Q16.34 5.84 17.23 6.79L17.23 6.79L17.23 6.79Q18.12 7.75 18.12 9.26L18.12 9.26L18.12 9.94L13.40 9.94L13.40 9.94Q13.47 10.49 13.88 10.79L13.88 10.79L13.88 10.79Q14.29 11.10 14.83 11.10L14.83 11.10L14.83 11.10Q15.79 11.10 16.54 10.55L16.54 10.55L17.64 11.65L17.64 11.65Q16.88 12.67 14.83 12.67L14.83 12.67L14.83 12.67Q13.33 12.67 12.37 11.72L12.37 11.72L12.37 11.72Q11.42 10.76 11.42 9.26ZM16.20 8.57L16.20 8.57Q16.20 8.03 15.79 7.72L15.79 7.72L15.79 7.72Q15.38 7.41 14.83 7.41L14.83 7.41L14.83 7.41Q14.29 7.41 13.88 7.72L13.88 7.72L13.88 7.72Q13.47 8.03 13.47 8.57L13.47 8.57L16.20 8.57ZM21.53 12.67L19.62 12.67L19.62 2.42L21.53 2.42L21.53 12.67ZM25.42 15.55L23.51 15.54L23.51 6.04L25.42 5.83L25.42 6.38L25.42 6.38Q26.19 5.83 26.93 5.83L26.93 5.83L26.93 5.83Q28.50 5.83 29.42 6.86L29.42 6.86L29.42 6.86Q30.34 7.88 30.34 9.25L30.34 9.25L30.34 9.25Q30.34 10.62 29.42 11.64L29.42 11.64L29.42 11.64Q28.50 12.67 26.93 12.67L26.93 12.67L26.93 12.67Q25.90 12.60 25.42 12.11L25.42 12.11L25.42 15.55ZM25.42 8.63L25.42 8.63L25.42 9.74L25.42 9.74Q25.56 10.89 26.86 11.09L26.86 11.09L26.86 11.09Q28.50 10.96 28.70 9.39L28.70 9.39L28.70 9.39Q28.64 7.47 26.86 7.40L26.86 7.40L26.86 7.40Q25.56 7.61 25.42 8.63ZM35.82 10.63L33.92 10.63L33.92 4.47L35.82 4.47L35.82 4.47Q38.55 4.47 38.55 7.55L38.55 7.55L38.55 7.55Q38.55 10.62 35.82 10.63L35.82 10.63ZM31.87 12.67L35.82 12.67L35.82 12.67Q40.61 12.67 40.61 7.55L40.61 7.55L40.61 7.55Q40.61 2.41 35.82 2.41L35.82 2.41L31.87 2.41L31.87 12.67ZM42.29 9.26L42.29 9.26L42.29 9.26Q42.29 7.75 43.24 6.79L43.24 6.79L43.24 6.79Q44.20 5.84 45.71 5.84L45.71 5.84L45.71 5.84Q47.21 5.84 48.10 6.79L48.10 6.79L48.10 6.79Q48.99 7.75 48.99 9.26L48.99 9.26L48.99 9.94L44.27 9.94L44.27 9.94Q44.34 10.49 44.75 10.79L44.75 10.79L44.75 10.79Q45.16 11.10 45.71 11.10L45.71 11.10L45.71 11.10Q46.66 11.10 47.41 10.55L47.41 10.55L48.51 11.65L48.51 11.65Q47.76 12.67 45.71 12.67L45.71 12.67L45.71 12.67Q44.20 12.67 43.24 11.72L43.24 11.72L43.24 11.72Q42.29 10.76 42.29 9.26ZM47.07 8.57L47.07 8.57Q47.07 8.03 46.66 7.72L46.66 7.72L46.66 7.72Q46.25 7.41 45.71 7.41L45.71 7.41L45.71 7.41Q45.16 7.41 44.75 7.72L44.75 7.72L44.75 7.72Q44.34 8.03 44.34 8.57L44.34 8.57L47.07 8.57ZM52.86 5.80L52.86 5.80Q53.82 5.80 54.35 6.03L54.35 6.03L54.35 6.03Q54.89 6.26 55.35 6.72L55.35 6.72L54.28 7.92L54.28 7.92Q53.82 7.37 53.12 7.37L53.12 7.37L53.12 7.37Q52.43 7.37 52.20 7.63L52.20 7.63L52.20 7.63Q51.97 7.88 52.20 8.09L52.20 8.09L52.20 8.09Q52.43 8.30 53.12 8.44L53.12 8.44L53.12 8.44Q54.14 8.53 54.79 9.02L54.79 9.02L54.79 9.02Q55.44 9.50 55.44 10.71L55.44 10.71L55.44 10.71Q55.44 11.68 54.67 12.21L54.67 12.21L54.67 12.21Q53.91 12.74 52.89 12.74L52.89 12.74L52.89 12.74Q51.92 12.74 51.27 12.47L51.27 12.47L51.27 12.47Q50.63 12.19 50.16 11.72L50.16 11.72L51.22 10.53L51.22 10.53Q51.69 11.08 52.66 11.17L52.66 11.17L52.66 11.17Q53.45 11.17 53.68 10.91L53.68 10.91L53.68 10.91Q53.91 10.66 53.75 10.40L53.75 10.40L53.75 10.40Q53.59 10.14 52.66 10.06L52.66 10.06L52.66 10.06Q51.83 9.96 51.14 9.54L51.14 9.54L51.14 9.54Q50.44 9.13 50.44 7.97L50.44 7.97L50.44 7.97Q50.44 6.91 51.23 6.35L51.23 6.35L51.23 6.35Q52.02 5.80 52.86 5.80L52.86 5.80ZM57.01 12.67L57.01 2.42L59.06 2.42L59.06 8.22L61.02 5.84L63.33 5.84L60.77 8.91L64.01 12.67L61.35 12.67L59.06 9.95L59.06 12.67L57.01 12.67Z"/></g><!----><g data-v-423bf9ae="" id="791d6077-a0a0-48c0-b075-607c58481397" transform="matrix(1.1112056970596313,0,0,1.1112056970596313,0.9892880916595459,0.4350409507751465)" stroke="none" fill="white"><path d="M96.591 89.202c-8.952-8.69-19.876-14.818-31.628-17.75a1.999 1.999 0 0 0-.977-.248h-1.065c-.027 0-.056.005-.085.008l4.826 10.456-10.062 18.34h37.569a2.04 2.04 0 0 0 2.042-2.043V90.67a2.05 2.05 0 0 0-.62-1.468zM34.403 71.211c-.042 0-.077-.011-.116-.011h-.775c-.157 0-.313.018-.468.054C20.983 74.108 9.771 80.315.621 89.202A2.043 2.043 0 0 0 0 90.67v7.295c0 1.131.915 2.043 2.042 2.043h37.319l-9.878-18.11 4.92-10.687zM47.951 53.999a3.007 3.007 0 0 0-2.645 1.59C33.294 54.35 29.459 43.914 29.459 43.914c.016.211.016.211 0 0h-.066c-2.075 0-3.756-1.782-3.756-3.979 0-1.625.916-3.017 2.226-3.638 0 0 5.681-11.243 8.49-24.42 0 0 2.65 20.705 33.028 24.303-.012.038-.02.079-.032.118 1.309.621 2.223 2.013 2.223 3.638 0 2.197-1.682 3.979-3.756 3.979h-.065c-.437 5.884-3.229 11.773-7.381 15.812v5.035C75.015 64.088 85 57.425 85 57.425c-13.792-8.427-1.95-36.769-17.16-50.023C52.629-5.852 48.605 2.735 48.605 2.735s-4.023-8.586-19.233 4.667c-15.21 13.254-3.369 41.595-17.16 50.021 0 0 9.912 6.612 24.467 7.329v-5.2c-2.25-2.235-4.072-5.024-5.339-8.048 2.727 2.966 7.099 6.005 13.822 6.674a3.02 3.02 0 0 0 5.811-1.158 3.022 3.022 0 0 0-3.022-3.021z"/></g><!----></svg>